<svg xmlns="http://www.w3.org/2000/svg" width="1280" height="256" viewBox="0 0 160 32" shape-rendering="crispEdges" role="img">
<title>Flight overview: DAL456 A321 / ALT 35000FT / GS 452KT</title>
<rect width="160" height="32" fill="#000000"/>
<rect x="0" y="0" width="160" height="1" fill="#334351"/>
<rect x="0" y="1" width="1" height="1" fill="#334351"/>
<rect x="159" y="1" width="1" height="1" fill="#334351"/>
<rect x="0" y="2" width="1" height="1" fill="#334351"/>
<rect x="159" y="2" width="1" height="1" fill="#334351"/>
<rect x="0" y="3" width="1" height="1" fill="#334351"/>
<rect x="32" y="3" width="1" height="1" fill="#334351"/>
<rect x="37" y="3" width="4" height="1" fill="#eaf4ff"/>
<rect x="44" y="3" width="3" height="1" fill="#eaf4ff"/>
<rect x="49" y="3" width="1" height="1" fill="#eaf4ff"/>
<rect x="58" y="3" width="1" height="1" fill="#eaf4ff"/>
<rect x="61" y="3" width="5" height="1" fill="#eaf4ff"/>
<rect x="68" y="3" width="3" height="1" fill="#eaf4ff"/>
<rect x="80" y="3" width="3" height="1" fill="#eaf4ff"/>
<rect x="85" y="3" width="4" height="1" fill="#eaf4ff"/>
<rect x="92" y="3" width="3" height="1" fill="#eaf4ff"/>
<rect x="99" y="3" width="1" height="1" fill="#eaf4ff"/>
<rect x="159" y="3" width="1" height="1" fill="#334351"/>
<rect x="0" y="4" width="1" height="1" fill="#334351"/>
<rect x="32" y="4" width="1" height="1" fill="#334351"/>
<rect x="37" y="4" width="1" height="1" fill="#eaf4ff"/>
<rect x="41" y="4" width="1" height="1" fill="#eaf4ff"/>
<rect x="43" y="4" width="1" height="1" fill="#eaf4ff"/>
<rect x="47" y="4" width="1" height="1" fill="#eaf4ff"/>
<rect x="49" y="4" width="1" height="1" fill="#eaf4ff"/>
<rect x="57" y="4" width="2" height="1" fill="#eaf4ff"/>
<rect x="61" y="4" width="1" height="1" fill="#eaf4ff"/>
<rect x="67" y="4" width="1" height="1" fill="#eaf4ff"/>
<rect x="79" y="4" width="1" height="1" fill="#eaf4ff"/>
<rect x="83" y="4" width="1" height="1" fill="#eaf4ff"/>
<rect x="89" y="4" width="1" height="1" fill="#eaf4ff"/>
<rect x="91" y="4" width="1" height="1" fill="#eaf4ff"/>
<rect x="95" y="4" width="1" height="1" fill="#eaf4ff"/>
<rect x="98" y="4" width="2" height="1" fill="#eaf4ff"/>
<rect x="159" y="4" width="1" height="1" fill="#334351"/>
<rect x="0" y="5" width="1" height="1" fill="#334351"/>
<rect x="32" y="5" width="1" height="1" fill="#334351"/>
<rect x="37" y="5" width="1" height="1" fill="#eaf4ff"/>
<rect x="41" y="5" width="1" height="1" fill="#eaf4ff"/>
<rect x="43" y="5" width="1" height="1" fill="#eaf4ff"/>
<rect x="47" y="5" width="1" height="1" fill="#eaf4ff"/>
<rect x="49" y="5" width="1" height="1" fill="#eaf4ff"/>
<rect x="56" y="5" width="1" height="1" fill="#eaf4ff"/>
<rect x="58" y="5" width="1" height="1" fill="#eaf4ff"/>
<rect x="61" y="5" width="1" height="1" fill="#eaf4ff"/>
<rect x="67" y="5" width="1" height="1" fill="#eaf4ff"/>
<rect x="79" y="5" width="1" height="1" fill="#eaf4ff"/>
<rect x="83" y="5" width="1" height="1" fill="#eaf4ff"/>
<rect x="89" y="5" width="1" height="1" fill="#eaf4ff"/>
<rect x="95" y="5" width="1" height="1" fill="#eaf4ff"/>
<rect x="99" y="5" width="1" height="1" fill="#eaf4ff"/>
<rect x="159" y="5" width="1" height="1" fill="#334351"/>
<rect x="0" y="6" width="1" height="1" fill="#334351"/>
<rect x="16" y="6" width="1" height="1" fill="#941f34"/>
<rect x="32" y="6" width="1" height="1" fill="#334351"/>
<rect x="37" y="6" width="1" height="1" fill="#eaf4ff"/>
<rect x="41" y="6" width="1" height="1" fill="#eaf4ff"/>
<rect x="43" y="6" width="5" height="1" fill="#eaf4ff"/>
<rect x="49" y="6" width="1" height="1" fill="#eaf4ff"/>
<rect x="55" y="6" width="1" height="1" fill="#eaf4ff"/>
<rect x="58" y="6" width="1" height="1" fill="#eaf4ff"/>
<rect x="61" y="6" width="4" height="1" fill="#eaf4ff"/>
<rect x="67" y="6" width="4" height="1" fill="#eaf4ff"/>
<rect x="79" y="6" width="5" height="1" fill="#eaf4ff"/>
<rect x="86" y="6" width="3" height="1" fill="#eaf4ff"/>
<rect x="94" y="6" width="1" height="1" fill="#eaf4ff"/>
<rect x="99" y="6" width="1" height="1" fill="#eaf4ff"/>
<rect x="159" y="6" width="1" height="1" fill="#334351"/>
<rect x="0" y="7" width="1" height="1" fill="#334351"/>
<rect x="15" y="7" width="1" height="1" fill="#e53848"/>
<rect x="16" y="7" width="2" height="1" fill="#941f34"/>
<rect x="32" y="7" width="1" height="1" fill="#334351"/>
<rect x="37" y="7" width="1" height="1" fill="#eaf4ff"/>
<rect x="41" y="7" width="1" height="1" fill="#eaf4ff"/>
<rect x="43" y="7" width="1" height="1" fill="#eaf4ff"/>
<rect x="47" y="7" width="1" height="1" fill="#eaf4ff"/>
<rect x="49" y="7" width="1" height="1" fill="#eaf4ff"/>
<rect x="55" y="7" width="5" height="1" fill="#eaf4ff"/>
<rect x="65" y="7" width="1" height="1" fill="#eaf4ff"/>
<rect x="67" y="7" width="1" height="1" fill="#eaf4ff"/>
<rect x="71" y="7" width="1" height="1" fill="#eaf4ff"/>
<rect x="79" y="7" width="1" height="1" fill="#eaf4ff"/>
<rect x="83" y="7" width="1" height="1" fill="#eaf4ff"/>
<rect x="89" y="7" width="1" height="1" fill="#eaf4ff"/>
<rect x="93" y="7" width="1" height="1" fill="#eaf4ff"/>
<rect x="99" y="7" width="1" height="1" fill="#eaf4ff"/>
<rect x="159" y="7" width="1" height="1" fill="#334351"/>
<rect x="0" y="8" width="1" height="1" fill="#334351"/>
<rect x="15" y="8" width="1" height="1" fill="#e53848"/>
<rect x="16" y="8" width="2" height="1" fill="#941f34"/>
<rect x="32" y="8" width="1" height="1" fill="#334351"/>
<rect x="37" y="8" width="1" height="1" fill="#eaf4ff"/>
<rect x="41" y="8" width="1" height="1" fill="#eaf4ff"/>
<rect x="43" y="8" width="1" height="1" fill="#eaf4ff"/>
<rect x="47" y="8" width="1" height="1" fill="#eaf4ff"/>
<rect x="49" y="8" width="1" height="1" fill="#eaf4ff"/>
<rect x="58" y="8" width="1" height="1" fill="#eaf4ff"/>
<rect x="65" y="8" width="1" height="1" fill="#eaf4ff"/>
<rect x="67" y="8" width="1" height="1" fill="#eaf4ff"/>
<rect x="71" y="8" width="1" height="1" fill="#eaf4ff"/>
<rect x="79" y="8" width="1" height="1" fill="#eaf4ff"/>
<rect x="83" y="8" width="1" height="1" fill="#eaf4ff"/>
<rect x="89" y="8" width="1" height="1" fill="#eaf4ff"/>
<rect x="92" y="8" width="1" height="1" fill="#eaf4ff"/>
<rect x="99" y="8" width="1" height="1" fill="#eaf4ff"/>
<rect x="159" y="8" width="1" height="1" fill="#334351"/>
<rect x="0" y="9" width="1" height="1" fill="#334351"/>
<rect x="14" y="9" width="2" height="1" fill="#e53848"/>
<rect x="16" y="9" width="3" height="1" fill="#941f34"/>
<rect x="32" y="9" width="1" height="1" fill="#334351"/>
<rect x="37" y="9" width="4" height="1" fill="#eaf4ff"/>
<rect x="43" y="9" width="1" height="1" fill="#eaf4ff"/>
<rect x="47" y="9" width="1" height="1" fill="#eaf4ff"/>
<rect x="49" y="9" width="5" height="1" fill="#eaf4ff"/>
<rect x="58" y="9" width="1" height="1" fill="#eaf4ff"/>
<rect x="61" y="9" width="4" height="1" fill="#eaf4ff"/>
<rect x="68" y="9" width="3" height="1" fill="#eaf4ff"/>
<rect x="79" y="9" width="1" height="1" fill="#eaf4ff"/>
<rect x="83" y="9" width="1" height="1" fill="#eaf4ff"/>
<rect x="85" y="9" width="4" height="1" fill="#eaf4ff"/>
<rect x="91" y="9" width="5" height="1" fill="#eaf4ff"/>
<rect x="98" y="9" width="3" height="1" fill="#eaf4ff"/>
<rect x="159" y="9" width="1" height="1" fill="#334351"/>
<rect x="0" y="10" width="1" height="1" fill="#334351"/>
<rect x="14" y="10" width="2" height="1" fill="#e53848"/>
<rect x="16" y="10" width="3" height="1" fill="#941f34"/>
<rect x="32" y="10" width="1" height="1" fill="#334351"/>
<rect x="159" y="10" width="1" height="1" fill="#334351"/>
<rect x="0" y="11" width="1" height="1" fill="#334351"/>
<rect x="13" y="11" width="3" height="1" fill="#e53848"/>
<rect x="16" y="11" width="4" height="1" fill="#941f34"/>
<rect x="32" y="11" width="1" height="1" fill="#334351"/>
<rect x="159" y="11" width="1" height="1" fill="#334351"/>
<rect x="0" y="12" width="1" height="1" fill="#334351"/>
<rect x="12" y="12" width="4" height="1" fill="#e53848"/>
<rect x="16" y="12" width="5" height="1" fill="#941f34"/>
<rect x="32" y="12" width="1" height="1" fill="#334351"/>
<rect x="38" y="12" width="3" height="1" fill="#54d9fa"/>
<rect x="43" y="12" width="1" height="1" fill="#54d9fa"/>
<rect x="49" y="12" width="5" height="1" fill="#54d9fa"/>
<rect x="61" y="12" width="4" height="1" fill="#54d9fa"/>
<rect x="67" y="12" width="5" height="1" fill="#54d9fa"/>
<rect x="74" y="12" width="3" height="1" fill="#54d9fa"/>
<rect x="80" y="12" width="3" height="1" fill="#54d9fa"/>
<rect x="86" y="12" width="3" height="1" fill="#54d9fa"/>
<rect x="91" y="12" width="5" height="1" fill="#54d9fa"/>
<rect x="97" y="12" width="5" height="1" fill="#54d9fa"/>
<rect x="159" y="12" width="1" height="1" fill="#334351"/>
<rect x="0" y="13" width="1" height="1" fill="#334351"/>
<rect x="12" y="13" width="4" height="1" fill="#e53848"/>
<rect x="16" y="13" width="5" height="1" fill="#941f34"/>
<rect x="32" y="13" width="1" height="1" fill="#334351"/>
<rect x="37" y="13" width="1" height="1" fill="#54d9fa"/>
<rect x="41" y="13" width="1" height="1" fill="#54d9fa"/>
<rect x="43" y="13" width="1" height="1" fill="#54d9fa"/>
<rect x="51" y="13" width="1" height="1" fill="#54d9fa"/>
<rect x="65" y="13" width="1" height="1" fill="#54d9fa"/>
<rect x="67" y="13" width="1" height="1" fill="#54d9fa"/>
<rect x="73" y="13" width="1" height="1" fill="#54d9fa"/>
<rect x="77" y="13" width="1" height="1" fill="#54d9fa"/>
<rect x="79" y="13" width="1" height="1" fill="#54d9fa"/>
<rect x="83" y="13" width="1" height="1" fill="#54d9fa"/>
<rect x="85" y="13" width="1" height="1" fill="#54d9fa"/>
<rect x="89" y="13" width="1" height="1" fill="#54d9fa"/>
<rect x="91" y="13" width="1" height="1" fill="#54d9fa"/>
<rect x="99" y="13" width="1" height="1" fill="#54d9fa"/>
<rect x="159" y="13" width="1" height="1" fill="#334351"/>
<rect x="0" y="14" width="1" height="1" fill="#334351"/>
<rect x="11" y="14" width="5" height="1" fill="#e53848"/>
<rect x="16" y="14" width="6" height="1" fill="#941f34"/>
<rect x="32" y="14" width="1" height="1" fill="#334351"/>
<rect x="37" y="14" width="1" height="1" fill="#54d9fa"/>
<rect x="41" y="14" width="1" height="1" fill="#54d9fa"/>
<rect x="43" y="14" width="1" height="1" fill="#54d9fa"/>
<rect x="51" y="14" width="1" height="1" fill="#54d9fa"/>
<rect x="65" y="14" width="1" height="1" fill="#54d9fa"/>
<rect x="67" y="14" width="1" height="1" fill="#54d9fa"/>
<rect x="73" y="14" width="1" height="1" fill="#54d9fa"/>
<rect x="76" y="14" width="2" height="1" fill="#54d9fa"/>
<rect x="79" y="14" width="1" height="1" fill="#54d9fa"/>
<rect x="82" y="14" width="2" height="1" fill="#54d9fa"/>
<rect x="85" y="14" width="1" height="1" fill="#54d9fa"/>
<rect x="88" y="14" width="2" height="1" fill="#54d9fa"/>
<rect x="91" y="14" width="1" height="1" fill="#54d9fa"/>
<rect x="99" y="14" width="1" height="1" fill="#54d9fa"/>
<rect x="159" y="14" width="1" height="1" fill="#334351"/>
<rect x="0" y="15" width="1" height="1" fill="#334351"/>
<rect x="11" y="15" width="5" height="1" fill="#e53848"/>
<rect x="16" y="15" width="6" height="1" fill="#941f34"/>
<rect x="32" y="15" width="1" height="1" fill="#334351"/>
<rect x="37" y="15" width="5" height="1" fill="#54d9fa"/>
<rect x="43" y="15" width="1" height="1" fill="#54d9fa"/>
<rect x="51" y="15" width="1" height="1" fill="#54d9fa"/>
<rect x="62" y="15" width="3" height="1" fill="#54d9fa"/>
<rect x="67" y="15" width="4" height="1" fill="#54d9fa"/>
<rect x="73" y="15" width="1" height="1" fill="#54d9fa"/>
<rect x="75" y="15" width="1" height="1" fill="#54d9fa"/>
<rect x="77" y="15" width="1" height="1" fill="#54d9fa"/>
<rect x="79" y="15" width="1" height="1" fill="#54d9fa"/>
<rect x="81" y="15" width="1" height="1" fill="#54d9fa"/>
<rect x="83" y="15" width="1" height="1" fill="#54d9fa"/>
<rect x="85" y="15" width="1" height="1" fill="#54d9fa"/>
<rect x="87" y="15" width="1" height="1" fill="#54d9fa"/>
<rect x="89" y="15" width="1" height="1" fill="#54d9fa"/>
<rect x="91" y="15" width="4" height="1" fill="#54d9fa"/>
<rect x="99" y="15" width="1" height="1" fill="#54d9fa"/>
<rect x="159" y="15" width="1" height="1" fill="#334351"/>
<rect x="0" y="16" width="1" height="1" fill="#334351"/>
<rect x="10" y="16" width="6" height="1" fill="#e53848"/>
<rect x="16" y="16" width="7" height="1" fill="#941f34"/>
<rect x="32" y="16" width="1" height="1" fill="#334351"/>
<rect x="37" y="16" width="1" height="1" fill="#54d9fa"/>
<rect x="41" y="16" width="1" height="1" fill="#54d9fa"/>
<rect x="43" y="16" width="1" height="1" fill="#54d9fa"/>
<rect x="51" y="16" width="1" height="1" fill="#54d9fa"/>
<rect x="65" y="16" width="1" height="1" fill="#54d9fa"/>
<rect x="71" y="16" width="1" height="1" fill="#54d9fa"/>
<rect x="73" y="16" width="2" height="1" fill="#54d9fa"/>
<rect x="77" y="16" width="1" height="1" fill="#54d9fa"/>
<rect x="79" y="16" width="2" height="1" fill="#54d9fa"/>
<rect x="83" y="16" width="1" height="1" fill="#54d9fa"/>
<rect x="85" y="16" width="2" height="1" fill="#54d9fa"/>
<rect x="89" y="16" width="1" height="1" fill="#54d9fa"/>
<rect x="91" y="16" width="1" height="1" fill="#54d9fa"/>
<rect x="99" y="16" width="1" height="1" fill="#54d9fa"/>
<rect x="159" y="16" width="1" height="1" fill="#334351"/>
<rect x="0" y="17" width="1" height="1" fill="#334351"/>
<rect x="10" y="17" width="6" height="1" fill="#e53848"/>
<rect x="16" y="17" width="7" height="1" fill="#941f34"/>
<rect x="32" y="17" width="1" height="1" fill="#334351"/>
<rect x="37" y="17" width="1" height="1" fill="#54d9fa"/>
<rect x="41" y="17" width="1" height="1" fill="#54d9fa"/>
<rect x="43" y="17" width="1" height="1" fill="#54d9fa"/>
<rect x="51" y="17" width="1" height="1" fill="#54d9fa"/>
<rect x="65" y="17" width="1" height="1" fill="#54d9fa"/>
<rect x="71" y="17" width="1" height="1" fill="#54d9fa"/>
<rect x="73" y="17" width="1" height="1" fill="#54d9fa"/>
<rect x="77" y="17" width="1" height="1" fill="#54d9fa"/>
<rect x="79" y="17" width="1" height="1" fill="#54d9fa"/>
<rect x="83" y="17" width="1" height="1" fill="#54d9fa"/>
<rect x="85" y="17" width="1" height="1" fill="#54d9fa"/>
<rect x="89" y="17" width="1" height="1" fill="#54d9fa"/>
<rect x="91" y="17" width="1" height="1" fill="#54d9fa"/>
<rect x="99" y="17" width="1" height="1" fill="#54d9fa"/>
<rect x="159" y="17" width="1" height="1" fill="#334351"/>
<rect x="0" y="18" width="1" height="1" fill="#334351"/>
<rect x="9" y="18" width="7" height="1" fill="#e53848"/>
<rect x="16" y="18" width="8" height="1" fill="#941f34"/>
<rect x="32" y="18" width="1" height="1" fill="#334351"/>
<rect x="37" y="18" width="1" height="1" fill="#54d9fa"/>
<rect x="41" y="18" width="1" height="1" fill="#54d9fa"/>
<rect x="43" y="18" width="5" height="1" fill="#54d9fa"/>
<rect x="51" y="18" width="1" height="1" fill="#54d9fa"/>
<rect x="61" y="18" width="4" height="1" fill="#54d9fa"/>
<rect x="67" y="18" width="4" height="1" fill="#54d9fa"/>
<rect x="74" y="18" width="3" height="1" fill="#54d9fa"/>
<rect x="80" y="18" width="3" height="1" fill="#54d9fa"/>
<rect x="86" y="18" width="3" height="1" fill="#54d9fa"/>
<rect x="91" y="18" width="1" height="1" fill="#54d9fa"/>
<rect x="99" y="18" width="1" height="1" fill="#54d9fa"/>
<rect x="159" y="18" width="1" height="1" fill="#334351"/>
<rect x="0" y="19" width="1" height="1" fill="#334351"/>
<rect x="8" y="19" width="8" height="1" fill="#e53848"/>
<rect x="16" y="19" width="9" height="1" fill="#941f34"/>
<rect x="32" y="19" width="1" height="1" fill="#334351"/>
<rect x="159" y="19" width="1" height="1" fill="#334351"/>
<rect x="0" y="20" width="1" height="1" fill="#334351"/>
<rect x="8" y="20" width="6" height="1" fill="#e53848"/>
<rect x="19" y="20" width="6" height="1" fill="#941f34"/>
<rect x="32" y="20" width="1" height="1" fill="#334351"/>
<rect x="159" y="20" width="1" height="1" fill="#334351"/>
<rect x="0" y="21" width="1" height="1" fill="#334351"/>
<rect x="7" y="21" width="5" height="1" fill="#e53848"/>
<rect x="16" y="21" width="1" height="1" fill="#e53848"/>
<rect x="21" y="21" width="5" height="1" fill="#941f34"/>
<rect x="32" y="21" width="1" height="1" fill="#334351"/>
<rect x="38" y="21" width="4" height="1" fill="#54d9fa"/>
<rect x="44" y="21" width="4" height="1" fill="#54d9fa"/>
<rect x="58" y="21" width="1" height="1" fill="#54d9fa"/>
<rect x="61" y="21" width="5" height="1" fill="#54d9fa"/>
<rect x="68" y="21" width="3" height="1" fill="#54d9fa"/>
<rect x="73" y="21" width="1" height="1" fill="#54d9fa"/>
<rect x="77" y="21" width="1" height="1" fill="#54d9fa"/>
<rect x="79" y="21" width="5" height="1" fill="#54d9fa"/>
<rect x="159" y="21" width="1" height="1" fill="#334351"/>
<rect x="0" y="22" width="1" height="1" fill="#334351"/>
<rect x="7" y="22" width="2" height="1" fill="#e53848"/>
<rect x="14" y="22" width="5" height="1" fill="#e53848"/>
<rect x="24" y="22" width="2" height="1" fill="#941f34"/>
<rect x="32" y="22" width="1" height="1" fill="#334351"/>
<rect x="37" y="22" width="1" height="1" fill="#54d9fa"/>
<rect x="43" y="22" width="1" height="1" fill="#54d9fa"/>
<rect x="57" y="22" width="2" height="1" fill="#54d9fa"/>
<rect x="61" y="22" width="1" height="1" fill="#54d9fa"/>
<rect x="67" y="22" width="1" height="1" fill="#54d9fa"/>
<rect x="71" y="22" width="1" height="1" fill="#54d9fa"/>
<rect x="73" y="22" width="1" height="1" fill="#54d9fa"/>
<rect x="76" y="22" width="1" height="1" fill="#54d9fa"/>
<rect x="81" y="22" width="1" height="1" fill="#54d9fa"/>
<rect x="159" y="22" width="1" height="1" fill="#334351"/>
<rect x="0" y="23" width="1" height="1" fill="#334351"/>
<rect x="6" y="23" width="1" height="1" fill="#e53848"/>
<rect x="11" y="23" width="11" height="1" fill="#e53848"/>
<rect x="26" y="23" width="1" height="1" fill="#941f34"/>
<rect x="32" y="23" width="1" height="1" fill="#334351"/>
<rect x="37" y="23" width="1" height="1" fill="#54d9fa"/>
<rect x="43" y="23" width="1" height="1" fill="#54d9fa"/>
<rect x="56" y="23" width="1" height="1" fill="#54d9fa"/>
<rect x="58" y="23" width="1" height="1" fill="#54d9fa"/>
<rect x="61" y="23" width="1" height="1" fill="#54d9fa"/>
<rect x="71" y="23" width="1" height="1" fill="#54d9fa"/>
<rect x="73" y="23" width="1" height="1" fill="#54d9fa"/>
<rect x="75" y="23" width="1" height="1" fill="#54d9fa"/>
<rect x="81" y="23" width="1" height="1" fill="#54d9fa"/>
<rect x="159" y="23" width="1" height="1" fill="#334351"/>
<rect x="0" y="24" width="1" height="1" fill="#334351"/>
<rect x="9" y="24" width="15" height="1" fill="#e53848"/>
<rect x="32" y="24" width="1" height="1" fill="#334351"/>
<rect x="37" y="24" width="1" height="1" fill="#54d9fa"/>
<rect x="39" y="24" width="3" height="1" fill="#54d9fa"/>
<rect x="44" y="24" width="3" height="1" fill="#54d9fa"/>
<rect x="55" y="24" width="1" height="1" fill="#54d9fa"/>
<rect x="58" y="24" width="1" height="1" fill="#54d9fa"/>
<rect x="61" y="24" width="4" height="1" fill="#54d9fa"/>
<rect x="70" y="24" width="1" height="1" fill="#54d9fa"/>
<rect x="73" y="24" width="2" height="1" fill="#54d9fa"/>
<rect x="81" y="24" width="1" height="1" fill="#54d9fa"/>
<rect x="159" y="24" width="1" height="1" fill="#334351"/>
<rect x="0" y="25" width="1" height="1" fill="#334351"/>
<rect x="6" y="25" width="21" height="1" fill="#e53848"/>
<rect x="32" y="25" width="1" height="1" fill="#334351"/>
<rect x="37" y="25" width="1" height="1" fill="#54d9fa"/>
<rect x="41" y="25" width="1" height="1" fill="#54d9fa"/>
<rect x="47" y="25" width="1" height="1" fill="#54d9fa"/>
<rect x="55" y="25" width="5" height="1" fill="#54d9fa"/>
<rect x="65" y="25" width="1" height="1" fill="#54d9fa"/>
<rect x="69" y="25" width="1" height="1" fill="#54d9fa"/>
<rect x="73" y="25" width="1" height="1" fill="#54d9fa"/>
<rect x="75" y="25" width="1" height="1" fill="#54d9fa"/>
<rect x="81" y="25" width="1" height="1" fill="#54d9fa"/>
<rect x="159" y="25" width="1" height="1" fill="#334351"/>
<rect x="0" y="26" width="1" height="1" fill="#334351"/>
<rect x="32" y="26" width="1" height="1" fill="#334351"/>
<rect x="37" y="26" width="1" height="1" fill="#54d9fa"/>
<rect x="41" y="26" width="1" height="1" fill="#54d9fa"/>
<rect x="47" y="26" width="1" height="1" fill="#54d9fa"/>
<rect x="58" y="26" width="1" height="1" fill="#54d9fa"/>
<rect x="65" y="26" width="1" height="1" fill="#54d9fa"/>
<rect x="68" y="26" width="1" height="1" fill="#54d9fa"/>
<rect x="73" y="26" width="1" height="1" fill="#54d9fa"/>
<rect x="76" y="26" width="1" height="1" fill="#54d9fa"/>
<rect x="81" y="26" width="1" height="1" fill="#54d9fa"/>
<rect x="159" y="26" width="1" height="1" fill="#334351"/>
<rect x="0" y="27" width="1" height="1" fill="#334351"/>
<rect x="32" y="27" width="1" height="1" fill="#334351"/>
<rect x="38" y="27" width="4" height="1" fill="#54d9fa"/>
<rect x="43" y="27" width="4" height="1" fill="#54d9fa"/>
<rect x="58" y="27" width="1" height="1" fill="#54d9fa"/>
<rect x="61" y="27" width="4" height="1" fill="#54d9fa"/>
<rect x="67" y="27" width="5" height="1" fill="#54d9fa"/>
<rect x="73" y="27" width="1" height="1" fill="#54d9fa"/>
<rect x="77" y="27" width="1" height="1" fill="#54d9fa"/>
<rect x="81" y="27" width="1" height="1" fill="#54d9fa"/>
<rect x="159" y="27" width="1" height="1" fill="#334351"/>
<rect x="0" y="28" width="1" height="1" fill="#334351"/>
<rect x="32" y="28" width="1" height="1" fill="#334351"/>
<rect x="159" y="28" width="1" height="1" fill="#334351"/>
<rect x="0" y="29" width="1" height="1" fill="#334351"/>
<rect x="159" y="29" width="1" height="1" fill="#334351"/>
<rect x="0" y="30" width="1" height="1" fill="#334351"/>
<rect x="159" y="30" width="1" height="1" fill="#334351"/>
<rect x="0" y="31" width="160" height="1" fill="#334351"/>
</svg>
