<svg xmlns="http://www.w3.org/2000/svg" width="1280" height="256" viewBox="0 0 160 32" shape-rendering="crispEdges" role="img">
<title>Aircraft Expired: AIRCRAFT EXPIRED / WAITING FOR FEED / NO LIVE DATA</title>
<rect width="160" height="32" fill="#000000"/>
<rect x="0" y="0" width="160" height="1" fill="#334351"/>
<rect x="0" y="1" width="1" height="1" fill="#334351"/>
<rect x="159" y="1" width="1" height="1" fill="#334351"/>
<rect x="0" y="2" width="1" height="1" fill="#334351"/>
<rect x="159" y="2" width="1" height="1" fill="#334351"/>
<rect x="0" y="3" width="1" height="1" fill="#334351"/>
<rect x="32" y="3" width="1" height="1" fill="#334351"/>
<rect x="38" y="3" width="3" height="1" fill="#ffbf69"/>
<rect x="43" y="3" width="5" height="1" fill="#ffbf69"/>
<rect x="49" y="3" width="4" height="1" fill="#ffbf69"/>
<rect x="56" y="3" width="4" height="1" fill="#ffbf69"/>
<rect x="61" y="3" width="4" height="1" fill="#ffbf69"/>
<rect x="68" y="3" width="3" height="1" fill="#ffbf69"/>
<rect x="73" y="3" width="5" height="1" fill="#ffbf69"/>
<rect x="79" y="3" width="5" height="1" fill="#ffbf69"/>
<rect x="91" y="3" width="5" height="1" fill="#ffbf69"/>
<rect x="97" y="3" width="1" height="1" fill="#ffbf69"/>
<rect x="101" y="3" width="1" height="1" fill="#ffbf69"/>
<rect x="103" y="3" width="4" height="1" fill="#ffbf69"/>
<rect x="109" y="3" width="5" height="1" fill="#ffbf69"/>
<rect x="115" y="3" width="4" height="1" fill="#ffbf69"/>
<rect x="121" y="3" width="5" height="1" fill="#ffbf69"/>
<rect x="127" y="3" width="4" height="1" fill="#ffbf69"/>
<rect x="159" y="3" width="1" height="1" fill="#334351"/>
<rect x="0" y="4" width="1" height="1" fill="#334351"/>
<rect x="32" y="4" width="1" height="1" fill="#334351"/>
<rect x="37" y="4" width="1" height="1" fill="#ffbf69"/>
<rect x="41" y="4" width="1" height="1" fill="#ffbf69"/>
<rect x="45" y="4" width="1" height="1" fill="#ffbf69"/>
<rect x="49" y="4" width="1" height="1" fill="#ffbf69"/>
<rect x="53" y="4" width="1" height="1" fill="#ffbf69"/>
<rect x="55" y="4" width="1" height="1" fill="#ffbf69"/>
<rect x="61" y="4" width="1" height="1" fill="#ffbf69"/>
<rect x="65" y="4" width="1" height="1" fill="#ffbf69"/>
<rect x="67" y="4" width="1" height="1" fill="#ffbf69"/>
<rect x="71" y="4" width="1" height="1" fill="#ffbf69"/>
<rect x="73" y="4" width="1" height="1" fill="#ffbf69"/>
<rect x="81" y="4" width="1" height="1" fill="#ffbf69"/>
<rect x="91" y="4" width="1" height="1" fill="#ffbf69"/>
<rect x="97" y="4" width="1" height="1" fill="#ffbf69"/>
<rect x="101" y="4" width="1" height="1" fill="#ffbf69"/>
<rect x="103" y="4" width="1" height="1" fill="#ffbf69"/>
<rect x="107" y="4" width="1" height="1" fill="#ffbf69"/>
<rect x="111" y="4" width="1" height="1" fill="#ffbf69"/>
<rect x="115" y="4" width="1" height="1" fill="#ffbf69"/>
<rect x="119" y="4" width="1" height="1" fill="#ffbf69"/>
<rect x="121" y="4" width="1" height="1" fill="#ffbf69"/>
<rect x="127" y="4" width="1" height="1" fill="#ffbf69"/>
<rect x="131" y="4" width="1" height="1" fill="#ffbf69"/>
<rect x="159" y="4" width="1" height="1" fill="#334351"/>
<rect x="0" y="5" width="1" height="1" fill="#334351"/>
<rect x="13" y="5" width="3" height="1" fill="#ffbf69"/>
<rect x="16" y="5" width="1" height="1" fill="#334351"/>
<rect x="17" y="5" width="2" height="1" fill="#ffbf69"/>
<rect x="32" y="5" width="1" height="1" fill="#334351"/>
<rect x="37" y="5" width="1" height="1" fill="#ffbf69"/>
<rect x="41" y="5" width="1" height="1" fill="#ffbf69"/>
<rect x="45" y="5" width="1" height="1" fill="#ffbf69"/>
<rect x="49" y="5" width="1" height="1" fill="#ffbf69"/>
<rect x="53" y="5" width="1" height="1" fill="#ffbf69"/>
<rect x="55" y="5" width="1" height="1" fill="#ffbf69"/>
<rect x="61" y="5" width="1" height="1" fill="#ffbf69"/>
<rect x="65" y="5" width="1" height="1" fill="#ffbf69"/>
<rect x="67" y="5" width="1" height="1" fill="#ffbf69"/>
<rect x="71" y="5" width="1" height="1" fill="#ffbf69"/>
<rect x="73" y="5" width="1" height="1" fill="#ffbf69"/>
<rect x="81" y="5" width="1" height="1" fill="#ffbf69"/>
<rect x="91" y="5" width="1" height="1" fill="#ffbf69"/>
<rect x="98" y="5" width="1" height="1" fill="#ffbf69"/>
<rect x="100" y="5" width="1" height="1" fill="#ffbf69"/>
<rect x="103" y="5" width="1" height="1" fill="#ffbf69"/>
<rect x="107" y="5" width="1" height="1" fill="#ffbf69"/>
<rect x="111" y="5" width="1" height="1" fill="#ffbf69"/>
<rect x="115" y="5" width="1" height="1" fill="#ffbf69"/>
<rect x="119" y="5" width="1" height="1" fill="#ffbf69"/>
<rect x="121" y="5" width="1" height="1" fill="#ffbf69"/>
<rect x="127" y="5" width="1" height="1" fill="#ffbf69"/>
<rect x="131" y="5" width="1" height="1" fill="#ffbf69"/>
<rect x="159" y="5" width="1" height="1" fill="#334351"/>
<rect x="0" y="6" width="1" height="1" fill="#334351"/>
<rect x="11" y="6" width="2" height="1" fill="#ffbf69"/>
<rect x="16" y="6" width="1" height="1" fill="#334351"/>
<rect x="19" y="6" width="2" height="1" fill="#ffbf69"/>
<rect x="32" y="6" width="1" height="1" fill="#334351"/>
<rect x="37" y="6" width="5" height="1" fill="#ffbf69"/>
<rect x="45" y="6" width="1" height="1" fill="#ffbf69"/>
<rect x="49" y="6" width="4" height="1" fill="#ffbf69"/>
<rect x="55" y="6" width="1" height="1" fill="#ffbf69"/>
<rect x="61" y="6" width="4" height="1" fill="#ffbf69"/>
<rect x="67" y="6" width="5" height="1" fill="#ffbf69"/>
<rect x="73" y="6" width="4" height="1" fill="#ffbf69"/>
<rect x="81" y="6" width="1" height="1" fill="#ffbf69"/>
<rect x="91" y="6" width="4" height="1" fill="#ffbf69"/>
<rect x="99" y="6" width="1" height="1" fill="#ffbf69"/>
<rect x="103" y="6" width="4" height="1" fill="#ffbf69"/>
<rect x="111" y="6" width="1" height="1" fill="#ffbf69"/>
<rect x="115" y="6" width="4" height="1" fill="#ffbf69"/>
<rect x="121" y="6" width="4" height="1" fill="#ffbf69"/>
<rect x="127" y="6" width="1" height="1" fill="#ffbf69"/>
<rect x="131" y="6" width="1" height="1" fill="#ffbf69"/>
<rect x="159" y="6" width="1" height="1" fill="#334351"/>
<rect x="0" y="7" width="1" height="1" fill="#334351"/>
<rect x="9" y="7" width="2" height="1" fill="#ffbf69"/>
<rect x="16" y="7" width="1" height="1" fill="#334351"/>
<rect x="21" y="7" width="2" height="1" fill="#ffbf69"/>
<rect x="32" y="7" width="1" height="1" fill="#334351"/>
<rect x="37" y="7" width="1" height="1" fill="#ffbf69"/>
<rect x="41" y="7" width="1" height="1" fill="#ffbf69"/>
<rect x="45" y="7" width="1" height="1" fill="#ffbf69"/>
<rect x="49" y="7" width="1" height="1" fill="#ffbf69"/>
<rect x="51" y="7" width="1" height="1" fill="#ffbf69"/>
<rect x="55" y="7" width="1" height="1" fill="#ffbf69"/>
<rect x="61" y="7" width="1" height="1" fill="#ffbf69"/>
<rect x="63" y="7" width="1" height="1" fill="#ffbf69"/>
<rect x="67" y="7" width="1" height="1" fill="#ffbf69"/>
<rect x="71" y="7" width="1" height="1" fill="#ffbf69"/>
<rect x="73" y="7" width="1" height="1" fill="#ffbf69"/>
<rect x="81" y="7" width="1" height="1" fill="#ffbf69"/>
<rect x="91" y="7" width="1" height="1" fill="#ffbf69"/>
<rect x="98" y="7" width="1" height="1" fill="#ffbf69"/>
<rect x="100" y="7" width="1" height="1" fill="#ffbf69"/>
<rect x="103" y="7" width="1" height="1" fill="#ffbf69"/>
<rect x="111" y="7" width="1" height="1" fill="#ffbf69"/>
<rect x="115" y="7" width="1" height="1" fill="#ffbf69"/>
<rect x="117" y="7" width="1" height="1" fill="#ffbf69"/>
<rect x="121" y="7" width="1" height="1" fill="#ffbf69"/>
<rect x="127" y="7" width="1" height="1" fill="#ffbf69"/>
<rect x="131" y="7" width="1" height="1" fill="#ffbf69"/>
<rect x="159" y="7" width="1" height="1" fill="#334351"/>
<rect x="0" y="8" width="1" height="1" fill="#334351"/>
<rect x="8" y="8" width="1" height="1" fill="#ffbf69"/>
<rect x="16" y="8" width="1" height="1" fill="#334351"/>
<rect x="23" y="8" width="1" height="1" fill="#ffbf69"/>
<rect x="32" y="8" width="1" height="1" fill="#334351"/>
<rect x="37" y="8" width="1" height="1" fill="#ffbf69"/>
<rect x="41" y="8" width="1" height="1" fill="#ffbf69"/>
<rect x="45" y="8" width="1" height="1" fill="#ffbf69"/>
<rect x="49" y="8" width="1" height="1" fill="#ffbf69"/>
<rect x="52" y="8" width="1" height="1" fill="#ffbf69"/>
<rect x="55" y="8" width="1" height="1" fill="#ffbf69"/>
<rect x="61" y="8" width="1" height="1" fill="#ffbf69"/>
<rect x="64" y="8" width="1" height="1" fill="#ffbf69"/>
<rect x="67" y="8" width="1" height="1" fill="#ffbf69"/>
<rect x="71" y="8" width="1" height="1" fill="#ffbf69"/>
<rect x="73" y="8" width="1" height="1" fill="#ffbf69"/>
<rect x="81" y="8" width="1" height="1" fill="#ffbf69"/>
<rect x="91" y="8" width="1" height="1" fill="#ffbf69"/>
<rect x="97" y="8" width="1" height="1" fill="#ffbf69"/>
<rect x="101" y="8" width="1" height="1" fill="#ffbf69"/>
<rect x="103" y="8" width="1" height="1" fill="#ffbf69"/>
<rect x="111" y="8" width="1" height="1" fill="#ffbf69"/>
<rect x="115" y="8" width="1" height="1" fill="#ffbf69"/>
<rect x="118" y="8" width="1" height="1" fill="#ffbf69"/>
<rect x="121" y="8" width="1" height="1" fill="#ffbf69"/>
<rect x="127" y="8" width="1" height="1" fill="#ffbf69"/>
<rect x="131" y="8" width="1" height="1" fill="#ffbf69"/>
<rect x="159" y="8" width="1" height="1" fill="#334351"/>
<rect x="0" y="9" width="1" height="1" fill="#334351"/>
<rect x="7" y="9" width="1" height="1" fill="#ffbf69"/>
<rect x="16" y="9" width="1" height="1" fill="#334351"/>
<rect x="22" y="9" width="1" height="1" fill="#ffbf69"/>
<rect x="24" y="9" width="1" height="1" fill="#ffbf69"/>
<rect x="32" y="9" width="1" height="1" fill="#334351"/>
<rect x="37" y="9" width="1" height="1" fill="#ffbf69"/>
<rect x="41" y="9" width="1" height="1" fill="#ffbf69"/>
<rect x="43" y="9" width="5" height="1" fill="#ffbf69"/>
<rect x="49" y="9" width="1" height="1" fill="#ffbf69"/>
<rect x="53" y="9" width="1" height="1" fill="#ffbf69"/>
<rect x="56" y="9" width="4" height="1" fill="#ffbf69"/>
<rect x="61" y="9" width="1" height="1" fill="#ffbf69"/>
<rect x="65" y="9" width="1" height="1" fill="#ffbf69"/>
<rect x="67" y="9" width="1" height="1" fill="#ffbf69"/>
<rect x="71" y="9" width="1" height="1" fill="#ffbf69"/>
<rect x="73" y="9" width="1" height="1" fill="#ffbf69"/>
<rect x="81" y="9" width="1" height="1" fill="#ffbf69"/>
<rect x="91" y="9" width="5" height="1" fill="#ffbf69"/>
<rect x="97" y="9" width="1" height="1" fill="#ffbf69"/>
<rect x="101" y="9" width="1" height="1" fill="#ffbf69"/>
<rect x="103" y="9" width="1" height="1" fill="#ffbf69"/>
<rect x="109" y="9" width="5" height="1" fill="#ffbf69"/>
<rect x="115" y="9" width="1" height="1" fill="#ffbf69"/>
<rect x="119" y="9" width="1" height="1" fill="#ffbf69"/>
<rect x="121" y="9" width="5" height="1" fill="#ffbf69"/>
<rect x="127" y="9" width="4" height="1" fill="#ffbf69"/>
<rect x="159" y="9" width="1" height="1" fill="#334351"/>
<rect x="0" y="10" width="1" height="1" fill="#334351"/>
<rect x="7" y="10" width="1" height="1" fill="#ffbf69"/>
<rect x="14" y="10" width="4" height="1" fill="#334351"/>
<rect x="21" y="10" width="1" height="1" fill="#ffbf69"/>
<rect x="24" y="10" width="1" height="1" fill="#ffbf69"/>
<rect x="32" y="10" width="1" height="1" fill="#334351"/>
<rect x="159" y="10" width="1" height="1" fill="#334351"/>
<rect x="0" y="11" width="1" height="1" fill="#334351"/>
<rect x="6" y="11" width="1" height="1" fill="#ffbf69"/>
<rect x="12" y="11" width="2" height="1" fill="#334351"/>
<rect x="16" y="11" width="1" height="1" fill="#334351"/>
<rect x="18" y="11" width="2" height="1" fill="#334351"/>
<rect x="20" y="11" width="1" height="1" fill="#ffbf69"/>
<rect x="25" y="11" width="1" height="1" fill="#ffbf69"/>
<rect x="32" y="11" width="1" height="1" fill="#334351"/>
<rect x="159" y="11" width="1" height="1" fill="#334351"/>
<rect x="0" y="12" width="1" height="1" fill="#334351"/>
<rect x="6" y="12" width="1" height="1" fill="#ffbf69"/>
<rect x="11" y="12" width="1" height="1" fill="#334351"/>
<rect x="16" y="12" width="1" height="1" fill="#334351"/>
<rect x="20" y="12" width="1" height="1" fill="#ffbf69"/>
<rect x="25" y="12" width="1" height="1" fill="#ffbf69"/>
<rect x="32" y="12" width="1" height="1" fill="#334351"/>
<rect x="37" y="12" width="1" height="1" fill="#eaf4ff"/>
<rect x="41" y="12" width="1" height="1" fill="#eaf4ff"/>
<rect x="44" y="12" width="3" height="1" fill="#eaf4ff"/>
<rect x="49" y="12" width="5" height="1" fill="#eaf4ff"/>
<rect x="55" y="12" width="5" height="1" fill="#eaf4ff"/>
<rect x="61" y="12" width="5" height="1" fill="#eaf4ff"/>
<rect x="67" y="12" width="1" height="1" fill="#eaf4ff"/>
<rect x="71" y="12" width="1" height="1" fill="#eaf4ff"/>
<rect x="74" y="12" width="4" height="1" fill="#eaf4ff"/>
<rect x="85" y="12" width="5" height="1" fill="#eaf4ff"/>
<rect x="92" y="12" width="3" height="1" fill="#eaf4ff"/>
<rect x="97" y="12" width="4" height="1" fill="#eaf4ff"/>
<rect x="109" y="12" width="5" height="1" fill="#eaf4ff"/>
<rect x="115" y="12" width="5" height="1" fill="#eaf4ff"/>
<rect x="121" y="12" width="5" height="1" fill="#eaf4ff"/>
<rect x="127" y="12" width="4" height="1" fill="#eaf4ff"/>
<rect x="159" y="12" width="1" height="1" fill="#334351"/>
<rect x="0" y="13" width="1" height="1" fill="#334351"/>
<rect x="5" y="13" width="1" height="1" fill="#ffbf69"/>
<rect x="11" y="13" width="1" height="1" fill="#334351"/>
<rect x="16" y="13" width="1" height="1" fill="#334351"/>
<rect x="19" y="13" width="1" height="1" fill="#ffbf69"/>
<rect x="20" y="13" width="1" height="1" fill="#334351"/>
<rect x="26" y="13" width="1" height="1" fill="#ffbf69"/>
<rect x="32" y="13" width="1" height="1" fill="#334351"/>
<rect x="37" y="13" width="1" height="1" fill="#eaf4ff"/>
<rect x="41" y="13" width="1" height="1" fill="#eaf4ff"/>
<rect x="43" y="13" width="1" height="1" fill="#eaf4ff"/>
<rect x="47" y="13" width="1" height="1" fill="#eaf4ff"/>
<rect x="51" y="13" width="1" height="1" fill="#eaf4ff"/>
<rect x="57" y="13" width="1" height="1" fill="#eaf4ff"/>
<rect x="63" y="13" width="1" height="1" fill="#eaf4ff"/>
<rect x="67" y="13" width="2" height="1" fill="#eaf4ff"/>
<rect x="71" y="13" width="1" height="1" fill="#eaf4ff"/>
<rect x="73" y="13" width="1" height="1" fill="#eaf4ff"/>
<rect x="85" y="13" width="1" height="1" fill="#eaf4ff"/>
<rect x="91" y="13" width="1" height="1" fill="#eaf4ff"/>
<rect x="95" y="13" width="1" height="1" fill="#eaf4ff"/>
<rect x="97" y="13" width="1" height="1" fill="#eaf4ff"/>
<rect x="101" y="13" width="1" height="1" fill="#eaf4ff"/>
<rect x="109" y="13" width="1" height="1" fill="#eaf4ff"/>
<rect x="115" y="13" width="1" height="1" fill="#eaf4ff"/>
<rect x="121" y="13" width="1" height="1" fill="#eaf4ff"/>
<rect x="127" y="13" width="1" height="1" fill="#eaf4ff"/>
<rect x="131" y="13" width="1" height="1" fill="#eaf4ff"/>
<rect x="159" y="13" width="1" height="1" fill="#334351"/>
<rect x="0" y="14" width="1" height="1" fill="#334351"/>
<rect x="5" y="14" width="1" height="1" fill="#ffbf69"/>
<rect x="10" y="14" width="1" height="1" fill="#334351"/>
<rect x="16" y="14" width="1" height="1" fill="#334351"/>
<rect x="18" y="14" width="1" height="1" fill="#ffbf69"/>
<rect x="21" y="14" width="1" height="1" fill="#334351"/>
<rect x="26" y="14" width="1" height="1" fill="#ffbf69"/>
<rect x="32" y="14" width="1" height="1" fill="#334351"/>
<rect x="37" y="14" width="1" height="1" fill="#eaf4ff"/>
<rect x="41" y="14" width="1" height="1" fill="#eaf4ff"/>
<rect x="43" y="14" width="1" height="1" fill="#eaf4ff"/>
<rect x="47" y="14" width="1" height="1" fill="#eaf4ff"/>
<rect x="51" y="14" width="1" height="1" fill="#eaf4ff"/>
<rect x="57" y="14" width="1" height="1" fill="#eaf4ff"/>
<rect x="63" y="14" width="1" height="1" fill="#eaf4ff"/>
<rect x="67" y="14" width="1" height="1" fill="#eaf4ff"/>
<rect x="69" y="14" width="1" height="1" fill="#eaf4ff"/>
<rect x="71" y="14" width="1" height="1" fill="#eaf4ff"/>
<rect x="73" y="14" width="1" height="1" fill="#eaf4ff"/>
<rect x="85" y="14" width="1" height="1" fill="#eaf4ff"/>
<rect x="91" y="14" width="1" height="1" fill="#eaf4ff"/>
<rect x="95" y="14" width="1" height="1" fill="#eaf4ff"/>
<rect x="97" y="14" width="1" height="1" fill="#eaf4ff"/>
<rect x="101" y="14" width="1" height="1" fill="#eaf4ff"/>
<rect x="109" y="14" width="1" height="1" fill="#eaf4ff"/>
<rect x="115" y="14" width="1" height="1" fill="#eaf4ff"/>
<rect x="121" y="14" width="1" height="1" fill="#eaf4ff"/>
<rect x="127" y="14" width="1" height="1" fill="#eaf4ff"/>
<rect x="131" y="14" width="1" height="1" fill="#eaf4ff"/>
<rect x="159" y="14" width="1" height="1" fill="#334351"/>
<rect x="0" y="15" width="1" height="1" fill="#334351"/>
<rect x="5" y="15" width="1" height="1" fill="#ffbf69"/>
<rect x="10" y="15" width="1" height="1" fill="#334351"/>
<rect x="16" y="15" width="1" height="1" fill="#334351"/>
<rect x="17" y="15" width="1" height="1" fill="#ffbf69"/>
<rect x="21" y="15" width="1" height="1" fill="#334351"/>
<rect x="26" y="15" width="1" height="1" fill="#ffbf69"/>
<rect x="32" y="15" width="1" height="1" fill="#334351"/>
<rect x="37" y="15" width="1" height="1" fill="#eaf4ff"/>
<rect x="39" y="15" width="1" height="1" fill="#eaf4ff"/>
<rect x="41" y="15" width="1" height="1" fill="#eaf4ff"/>
<rect x="43" y="15" width="5" height="1" fill="#eaf4ff"/>
<rect x="51" y="15" width="1" height="1" fill="#eaf4ff"/>
<rect x="57" y="15" width="1" height="1" fill="#eaf4ff"/>
<rect x="63" y="15" width="1" height="1" fill="#eaf4ff"/>
<rect x="67" y="15" width="1" height="1" fill="#eaf4ff"/>
<rect x="70" y="15" width="2" height="1" fill="#eaf4ff"/>
<rect x="73" y="15" width="1" height="1" fill="#eaf4ff"/>
<rect x="75" y="15" width="3" height="1" fill="#eaf4ff"/>
<rect x="85" y="15" width="4" height="1" fill="#eaf4ff"/>
<rect x="91" y="15" width="1" height="1" fill="#eaf4ff"/>
<rect x="95" y="15" width="1" height="1" fill="#eaf4ff"/>
<rect x="97" y="15" width="4" height="1" fill="#eaf4ff"/>
<rect x="109" y="15" width="4" height="1" fill="#eaf4ff"/>
<rect x="115" y="15" width="4" height="1" fill="#eaf4ff"/>
<rect x="121" y="15" width="4" height="1" fill="#eaf4ff"/>
<rect x="127" y="15" width="1" height="1" fill="#eaf4ff"/>
<rect x="131" y="15" width="1" height="1" fill="#eaf4ff"/>
<rect x="159" y="15" width="1" height="1" fill="#334351"/>
<rect x="0" y="16" width="1" height="1" fill="#334351"/>
<rect x="5" y="16" width="11" height="1" fill="#334351"/>
<rect x="16" y="16" width="1" height="1" fill="#ffbf69"/>
<rect x="17" y="16" width="10" height="1" fill="#334351"/>
<rect x="32" y="16" width="1" height="1" fill="#334351"/>
<rect x="37" y="16" width="1" height="1" fill="#eaf4ff"/>
<rect x="39" y="16" width="1" height="1" fill="#eaf4ff"/>
<rect x="41" y="16" width="1" height="1" fill="#eaf4ff"/>
<rect x="43" y="16" width="1" height="1" fill="#eaf4ff"/>
<rect x="47" y="16" width="1" height="1" fill="#eaf4ff"/>
<rect x="51" y="16" width="1" height="1" fill="#eaf4ff"/>
<rect x="57" y="16" width="1" height="1" fill="#eaf4ff"/>
<rect x="63" y="16" width="1" height="1" fill="#eaf4ff"/>
<rect x="67" y="16" width="1" height="1" fill="#eaf4ff"/>
<rect x="71" y="16" width="1" height="1" fill="#eaf4ff"/>
<rect x="73" y="16" width="1" height="1" fill="#eaf4ff"/>
<rect x="77" y="16" width="1" height="1" fill="#eaf4ff"/>
<rect x="85" y="16" width="1" height="1" fill="#eaf4ff"/>
<rect x="91" y="16" width="1" height="1" fill="#eaf4ff"/>
<rect x="95" y="16" width="1" height="1" fill="#eaf4ff"/>
<rect x="97" y="16" width="1" height="1" fill="#eaf4ff"/>
<rect x="99" y="16" width="1" height="1" fill="#eaf4ff"/>
<rect x="109" y="16" width="1" height="1" fill="#eaf4ff"/>
<rect x="115" y="16" width="1" height="1" fill="#eaf4ff"/>
<rect x="121" y="16" width="1" height="1" fill="#eaf4ff"/>
<rect x="127" y="16" width="1" height="1" fill="#eaf4ff"/>
<rect x="131" y="16" width="1" height="1" fill="#eaf4ff"/>
<rect x="159" y="16" width="1" height="1" fill="#334351"/>
<rect x="0" y="17" width="1" height="1" fill="#334351"/>
<rect x="5" y="17" width="1" height="1" fill="#ffbf69"/>
<rect x="10" y="17" width="1" height="1" fill="#334351"/>
<rect x="16" y="17" width="1" height="1" fill="#334351"/>
<rect x="21" y="17" width="1" height="1" fill="#334351"/>
<rect x="26" y="17" width="1" height="1" fill="#ffbf69"/>
<rect x="32" y="17" width="1" height="1" fill="#334351"/>
<rect x="37" y="17" width="1" height="1" fill="#eaf4ff"/>
<rect x="39" y="17" width="1" height="1" fill="#eaf4ff"/>
<rect x="41" y="17" width="1" height="1" fill="#eaf4ff"/>
<rect x="43" y="17" width="1" height="1" fill="#eaf4ff"/>
<rect x="47" y="17" width="1" height="1" fill="#eaf4ff"/>
<rect x="51" y="17" width="1" height="1" fill="#eaf4ff"/>
<rect x="57" y="17" width="1" height="1" fill="#eaf4ff"/>
<rect x="63" y="17" width="1" height="1" fill="#eaf4ff"/>
<rect x="67" y="17" width="1" height="1" fill="#eaf4ff"/>
<rect x="71" y="17" width="1" height="1" fill="#eaf4ff"/>
<rect x="73" y="17" width="1" height="1" fill="#eaf4ff"/>
<rect x="77" y="17" width="1" height="1" fill="#eaf4ff"/>
<rect x="85" y="17" width="1" height="1" fill="#eaf4ff"/>
<rect x="91" y="17" width="1" height="1" fill="#eaf4ff"/>
<rect x="95" y="17" width="1" height="1" fill="#eaf4ff"/>
<rect x="97" y="17" width="1" height="1" fill="#eaf4ff"/>
<rect x="100" y="17" width="1" height="1" fill="#eaf4ff"/>
<rect x="109" y="17" width="1" height="1" fill="#eaf4ff"/>
<rect x="115" y="17" width="1" height="1" fill="#eaf4ff"/>
<rect x="121" y="17" width="1" height="1" fill="#eaf4ff"/>
<rect x="127" y="17" width="1" height="1" fill="#eaf4ff"/>
<rect x="131" y="17" width="1" height="1" fill="#eaf4ff"/>
<rect x="159" y="17" width="1" height="1" fill="#334351"/>
<rect x="0" y="18" width="1" height="1" fill="#334351"/>
<rect x="5" y="18" width="1" height="1" fill="#ffbf69"/>
<rect x="11" y="18" width="1" height="1" fill="#334351"/>
<rect x="16" y="18" width="1" height="1" fill="#334351"/>
<rect x="20" y="18" width="1" height="1" fill="#334351"/>
<rect x="26" y="18" width="1" height="1" fill="#ffbf69"/>
<rect x="32" y="18" width="1" height="1" fill="#334351"/>
<rect x="38" y="18" width="1" height="1" fill="#eaf4ff"/>
<rect x="40" y="18" width="1" height="1" fill="#eaf4ff"/>
<rect x="43" y="18" width="1" height="1" fill="#eaf4ff"/>
<rect x="47" y="18" width="1" height="1" fill="#eaf4ff"/>
<rect x="49" y="18" width="5" height="1" fill="#eaf4ff"/>
<rect x="57" y="18" width="1" height="1" fill="#eaf4ff"/>
<rect x="61" y="18" width="5" height="1" fill="#eaf4ff"/>
<rect x="67" y="18" width="1" height="1" fill="#eaf4ff"/>
<rect x="71" y="18" width="1" height="1" fill="#eaf4ff"/>
<rect x="74" y="18" width="4" height="1" fill="#eaf4ff"/>
<rect x="85" y="18" width="1" height="1" fill="#eaf4ff"/>
<rect x="92" y="18" width="3" height="1" fill="#eaf4ff"/>
<rect x="97" y="18" width="1" height="1" fill="#eaf4ff"/>
<rect x="101" y="18" width="1" height="1" fill="#eaf4ff"/>
<rect x="109" y="18" width="1" height="1" fill="#eaf4ff"/>
<rect x="115" y="18" width="5" height="1" fill="#eaf4ff"/>
<rect x="121" y="18" width="5" height="1" fill="#eaf4ff"/>
<rect x="127" y="18" width="4" height="1" fill="#eaf4ff"/>
<rect x="159" y="18" width="1" height="1" fill="#334351"/>
<rect x="0" y="19" width="1" height="1" fill="#334351"/>
<rect x="6" y="19" width="1" height="1" fill="#ffbf69"/>
<rect x="11" y="19" width="1" height="1" fill="#334351"/>
<rect x="16" y="19" width="1" height="1" fill="#334351"/>
<rect x="20" y="19" width="1" height="1" fill="#334351"/>
<rect x="25" y="19" width="1" height="1" fill="#ffbf69"/>
<rect x="32" y="19" width="1" height="1" fill="#334351"/>
<rect x="159" y="19" width="1" height="1" fill="#334351"/>
<rect x="0" y="20" width="1" height="1" fill="#334351"/>
<rect x="6" y="20" width="1" height="1" fill="#ffbf69"/>
<rect x="12" y="20" width="2" height="1" fill="#334351"/>
<rect x="16" y="20" width="1" height="1" fill="#334351"/>
<rect x="18" y="20" width="2" height="1" fill="#334351"/>
<rect x="25" y="20" width="1" height="1" fill="#ffbf69"/>
<rect x="32" y="20" width="1" height="1" fill="#334351"/>
<rect x="159" y="20" width="1" height="1" fill="#334351"/>
<rect x="0" y="21" width="1" height="1" fill="#334351"/>
<rect x="7" y="21" width="1" height="1" fill="#ffbf69"/>
<rect x="14" y="21" width="4" height="1" fill="#334351"/>
<rect x="24" y="21" width="1" height="1" fill="#ffbf69"/>
<rect x="32" y="21" width="1" height="1" fill="#334351"/>
<rect x="37" y="21" width="1" height="1" fill="#91a5b9"/>
<rect x="41" y="21" width="1" height="1" fill="#91a5b9"/>
<rect x="44" y="21" width="3" height="1" fill="#91a5b9"/>
<rect x="55" y="21" width="1" height="1" fill="#91a5b9"/>
<rect x="61" y="21" width="5" height="1" fill="#91a5b9"/>
<rect x="67" y="21" width="1" height="1" fill="#91a5b9"/>
<rect x="71" y="21" width="1" height="1" fill="#91a5b9"/>
<rect x="73" y="21" width="5" height="1" fill="#91a5b9"/>
<rect x="85" y="21" width="4" height="1" fill="#91a5b9"/>
<rect x="92" y="21" width="3" height="1" fill="#91a5b9"/>
<rect x="97" y="21" width="5" height="1" fill="#91a5b9"/>
<rect x="104" y="21" width="3" height="1" fill="#91a5b9"/>
<rect x="159" y="21" width="1" height="1" fill="#334351"/>
<rect x="0" y="22" width="1" height="1" fill="#334351"/>
<rect x="7" y="22" width="1" height="1" fill="#ffbf69"/>
<rect x="16" y="22" width="1" height="1" fill="#334351"/>
<rect x="24" y="22" width="1" height="1" fill="#ffbf69"/>
<rect x="32" y="22" width="1" height="1" fill="#334351"/>
<rect x="37" y="22" width="2" height="1" fill="#91a5b9"/>
<rect x="41" y="22" width="1" height="1" fill="#91a5b9"/>
<rect x="43" y="22" width="1" height="1" fill="#91a5b9"/>
<rect x="47" y="22" width="1" height="1" fill="#91a5b9"/>
<rect x="55" y="22" width="1" height="1" fill="#91a5b9"/>
<rect x="63" y="22" width="1" height="1" fill="#91a5b9"/>
<rect x="67" y="22" width="1" height="1" fill="#91a5b9"/>
<rect x="71" y="22" width="1" height="1" fill="#91a5b9"/>
<rect x="73" y="22" width="1" height="1" fill="#91a5b9"/>
<rect x="85" y="22" width="1" height="1" fill="#91a5b9"/>
<rect x="89" y="22" width="1" height="1" fill="#91a5b9"/>
<rect x="91" y="22" width="1" height="1" fill="#91a5b9"/>
<rect x="95" y="22" width="1" height="1" fill="#91a5b9"/>
<rect x="99" y="22" width="1" height="1" fill="#91a5b9"/>
<rect x="103" y="22" width="1" height="1" fill="#91a5b9"/>
<rect x="107" y="22" width="1" height="1" fill="#91a5b9"/>
<rect x="159" y="22" width="1" height="1" fill="#334351"/>
<rect x="0" y="23" width="1" height="1" fill="#334351"/>
<rect x="8" y="23" width="1" height="1" fill="#ffbf69"/>
<rect x="16" y="23" width="1" height="1" fill="#334351"/>
<rect x="23" y="23" width="1" height="1" fill="#ffbf69"/>
<rect x="32" y="23" width="1" height="1" fill="#334351"/>
<rect x="37" y="23" width="1" height="1" fill="#91a5b9"/>
<rect x="39" y="23" width="1" height="1" fill="#91a5b9"/>
<rect x="41" y="23" width="1" height="1" fill="#91a5b9"/>
<rect x="43" y="23" width="1" height="1" fill="#91a5b9"/>
<rect x="47" y="23" width="1" height="1" fill="#91a5b9"/>
<rect x="55" y="23" width="1" height="1" fill="#91a5b9"/>
<rect x="63" y="23" width="1" height="1" fill="#91a5b9"/>
<rect x="67" y="23" width="1" height="1" fill="#91a5b9"/>
<rect x="71" y="23" width="1" height="1" fill="#91a5b9"/>
<rect x="73" y="23" width="1" height="1" fill="#91a5b9"/>
<rect x="85" y="23" width="1" height="1" fill="#91a5b9"/>
<rect x="89" y="23" width="1" height="1" fill="#91a5b9"/>
<rect x="91" y="23" width="1" height="1" fill="#91a5b9"/>
<rect x="95" y="23" width="1" height="1" fill="#91a5b9"/>
<rect x="99" y="23" width="1" height="1" fill="#91a5b9"/>
<rect x="103" y="23" width="1" height="1" fill="#91a5b9"/>
<rect x="107" y="23" width="1" height="1" fill="#91a5b9"/>
<rect x="159" y="23" width="1" height="1" fill="#334351"/>
<rect x="0" y="24" width="1" height="1" fill="#334351"/>
<rect x="9" y="24" width="2" height="1" fill="#ffbf69"/>
<rect x="16" y="24" width="1" height="1" fill="#334351"/>
<rect x="21" y="24" width="2" height="1" fill="#ffbf69"/>
<rect x="32" y="24" width="1" height="1" fill="#334351"/>
<rect x="37" y="24" width="1" height="1" fill="#91a5b9"/>
<rect x="40" y="24" width="2" height="1" fill="#91a5b9"/>
<rect x="43" y="24" width="1" height="1" fill="#91a5b9"/>
<rect x="47" y="24" width="1" height="1" fill="#91a5b9"/>
<rect x="55" y="24" width="1" height="1" fill="#91a5b9"/>
<rect x="63" y="24" width="1" height="1" fill="#91a5b9"/>
<rect x="67" y="24" width="1" height="1" fill="#91a5b9"/>
<rect x="71" y="24" width="1" height="1" fill="#91a5b9"/>
<rect x="73" y="24" width="4" height="1" fill="#91a5b9"/>
<rect x="85" y="24" width="1" height="1" fill="#91a5b9"/>
<rect x="89" y="24" width="1" height="1" fill="#91a5b9"/>
<rect x="91" y="24" width="5" height="1" fill="#91a5b9"/>
<rect x="99" y="24" width="1" height="1" fill="#91a5b9"/>
<rect x="103" y="24" width="5" height="1" fill="#91a5b9"/>
<rect x="159" y="24" width="1" height="1" fill="#334351"/>
<rect x="0" y="25" width="1" height="1" fill="#334351"/>
<rect x="11" y="25" width="2" height="1" fill="#ffbf69"/>
<rect x="16" y="25" width="1" height="1" fill="#334351"/>
<rect x="19" y="25" width="2" height="1" fill="#ffbf69"/>
<rect x="32" y="25" width="1" height="1" fill="#334351"/>
<rect x="37" y="25" width="1" height="1" fill="#91a5b9"/>
<rect x="41" y="25" width="1" height="1" fill="#91a5b9"/>
<rect x="43" y="25" width="1" height="1" fill="#91a5b9"/>
<rect x="47" y="25" width="1" height="1" fill="#91a5b9"/>
<rect x="55" y="25" width="1" height="1" fill="#91a5b9"/>
<rect x="63" y="25" width="1" height="1" fill="#91a5b9"/>
<rect x="67" y="25" width="1" height="1" fill="#91a5b9"/>
<rect x="71" y="25" width="1" height="1" fill="#91a5b9"/>
<rect x="73" y="25" width="1" height="1" fill="#91a5b9"/>
<rect x="85" y="25" width="1" height="1" fill="#91a5b9"/>
<rect x="89" y="25" width="1" height="1" fill="#91a5b9"/>
<rect x="91" y="25" width="1" height="1" fill="#91a5b9"/>
<rect x="95" y="25" width="1" height="1" fill="#91a5b9"/>
<rect x="99" y="25" width="1" height="1" fill="#91a5b9"/>
<rect x="103" y="25" width="1" height="1" fill="#91a5b9"/>
<rect x="107" y="25" width="1" height="1" fill="#91a5b9"/>
<rect x="159" y="25" width="1" height="1" fill="#334351"/>
<rect x="0" y="26" width="1" height="1" fill="#334351"/>
<rect x="13" y="26" width="3" height="1" fill="#ffbf69"/>
<rect x="16" y="26" width="1" height="1" fill="#334351"/>
<rect x="17" y="26" width="2" height="1" fill="#ffbf69"/>
<rect x="32" y="26" width="1" height="1" fill="#334351"/>
<rect x="37" y="26" width="1" height="1" fill="#91a5b9"/>
<rect x="41" y="26" width="1" height="1" fill="#91a5b9"/>
<rect x="43" y="26" width="1" height="1" fill="#91a5b9"/>
<rect x="47" y="26" width="1" height="1" fill="#91a5b9"/>
<rect x="55" y="26" width="1" height="1" fill="#91a5b9"/>
<rect x="63" y="26" width="1" height="1" fill="#91a5b9"/>
<rect x="68" y="26" width="1" height="1" fill="#91a5b9"/>
<rect x="70" y="26" width="1" height="1" fill="#91a5b9"/>
<rect x="73" y="26" width="1" height="1" fill="#91a5b9"/>
<rect x="85" y="26" width="1" height="1" fill="#91a5b9"/>
<rect x="89" y="26" width="1" height="1" fill="#91a5b9"/>
<rect x="91" y="26" width="1" height="1" fill="#91a5b9"/>
<rect x="95" y="26" width="1" height="1" fill="#91a5b9"/>
<rect x="99" y="26" width="1" height="1" fill="#91a5b9"/>
<rect x="103" y="26" width="1" height="1" fill="#91a5b9"/>
<rect x="107" y="26" width="1" height="1" fill="#91a5b9"/>
<rect x="159" y="26" width="1" height="1" fill="#334351"/>
<rect x="0" y="27" width="1" height="1" fill="#334351"/>
<rect x="32" y="27" width="1" height="1" fill="#334351"/>
<rect x="37" y="27" width="1" height="1" fill="#91a5b9"/>
<rect x="41" y="27" width="1" height="1" fill="#91a5b9"/>
<rect x="44" y="27" width="3" height="1" fill="#91a5b9"/>
<rect x="55" y="27" width="5" height="1" fill="#91a5b9"/>
<rect x="61" y="27" width="5" height="1" fill="#91a5b9"/>
<rect x="69" y="27" width="1" height="1" fill="#91a5b9"/>
<rect x="73" y="27" width="5" height="1" fill="#91a5b9"/>
<rect x="85" y="27" width="4" height="1" fill="#91a5b9"/>
<rect x="91" y="27" width="1" height="1" fill="#91a5b9"/>
<rect x="95" y="27" width="1" height="1" fill="#91a5b9"/>
<rect x="99" y="27" width="1" height="1" fill="#91a5b9"/>
<rect x="103" y="27" width="1" height="1" fill="#91a5b9"/>
<rect x="107" y="27" width="1" height="1" fill="#91a5b9"/>
<rect x="159" y="27" width="1" height="1" fill="#334351"/>
<rect x="0" y="28" width="1" height="1" fill="#334351"/>
<rect x="32" y="28" width="1" height="1" fill="#334351"/>
<rect x="159" y="28" width="1" height="1" fill="#334351"/>
<rect x="0" y="29" width="1" height="1" fill="#334351"/>
<rect x="159" y="29" width="1" height="1" fill="#334351"/>
<rect x="0" y="30" width="1" height="1" fill="#334351"/>
<rect x="159" y="30" width="1" height="1" fill="#334351"/>
<rect x="0" y="31" width="160" height="1" fill="#334351"/>
</svg>
